<svg id="B_W_Simplified_No_Dots_" data-name="B&amp;W (Simplified / No Dots)" xmlns="http://www.w3.org/2000/svg" viewBox="0 0 456.4 474.67"><defs><style>.cls-1{fill:#231f20}</style></defs><title>backup-pro-logo-bw-simplified-no-dots</title><path class="cls-1" d="M39.1 233.82s-11.53 30.67-8.66 58.5c3.52 34.1 10.88 54.38 36 82.5 21.3 23.85 29.5 32.5 29.5 32.5s-28.13 43.33-29.5 45.5-2.5 9.5 7 9.5 160.5-16.5 160.5-16.5 11.5-1.5 6-14.5-56.46-144.83-58-148.5-9-6-12.5-.5-28.5 46.5-28.5 46.5-53.83 3.82-98.23-88.07c-1.16-2.4-2.47-4.4-3.61-6.93zM441.74 234.09L381 95.5s-19-43.44-26.47-59.26-19.48-6.07-19.48-6.07l-8.81-16.9c-3.7-7.1-13.41-2-13.41-2L163.68 89C150 67 125.43 78.81 125.43 78.81L105.86 89.3 12 141.09c-6.82 3.76-2.77 14.28-2.77 14.28l28.33 55.55L52.4 212c21.09 34.5 35.63 58.38 50 71.07 18.09 15.67 29.38 12.57 29.38 12.57s15.33-23 32-42.12c9.75-8.53 26.89-.8 31.33 7.88 16.13 33.44 40 93.84 40 93.84l204.72-107c7.64-4.01 1.91-14.15 1.91-14.15z"/></svg>