<svg id="B_W_Simplified_" data-name="B&amp;W (Simplified)" xmlns="http://www.w3.org/2000/svg" viewBox="0 0 453 455"><defs><style>.cls-1{fill:#231f20}</style></defs><title>backup-pro-logo-bw-simplified</title><path class="cls-1" d="M41.26 218.09s-11.53 30.67-8.66 58.5c3.52 34.1 10.88 54.38 36 82.5 21.3 23.85 29.5 32.5 29.5 32.5l-29.5 45.5c-1.4 2.16-2.5 9.5 7 9.5s160.5-16.5 160.5-16.5 11.5-1.5 6-14.5-56.46-144.83-58-148.5-9-6-12.5-.5-28.5 46.5-28.5 46.5-53.83 3.82-98.23-88.09c-1.15-2.37-2.46-4.38-3.61-6.91z"/><path class="cls-1" d="M441.74 234.09L381 95.5s-19-43.44-26.47-59.26-19.48-6.07-19.48-6.07l-8.81-16.9c-3.7-7.1-13.41-2-13.41-2L163.68 89C150 67 125.43 78.81 125.43 78.81L105.86 89.3 12 141.09c-6.82 3.76-2.77 14.28-2.77 14.28l28.33 55.55 4.3-8 7.13 12C70 249.45 88 270.38 102.36 283.07a12.48 12.48 0 0 1 19.76 14.11c12.1 6.36 18.62 5.15 18.62 5.15s1-4 12.27-24.09a12.49 12.49 0 1 1 13.77-20.74c9.75-8.53 18.31-.95 22.74 4.7a12.49 12.49 0 1 1 9.76 21.74l28.78 74.53 211.68-110.21c7.73-4.03 2-14.17 2-14.17zM297.92 124.86a16 16 0 1 1-16.37 15.62 16 16 0 0 1 16.37-15.62zm-40.8-8.12a16 16 0 1 1-16.37 15.62 16 16 0 0 1 16.36-15.62zm-16.48 38.15a16 16 0 1 1-16.37 15.62 16 16 0 0 1 16.37-15.62zM122.89 273.26a12.5 12.5 0 1 1 12.79-12.2 12.5 12.5 0 0 1-12.79 12.2zm13.69-32A16 16 0 1 1 153 225.63a16 16 0 0 1-16.42 15.62zM153 203a16 16 0 1 1 16.37-15.62A16 16 0 0 1 153 203zm24 42a12.5 12.5 0 1 1 12.79-12.2A12.5 12.5 0 0 1 177 245zm16.85-34a16 16 0 1 1 16.37-15.62A16 16 0 0 1 193.85 211zm22.22 38.66a12.5 12.5 0 1 1 12.79-12.2 12.5 12.5 0 0 1-12.79 12.24zm12.37-32.1a12.5 12.5 0 1 1 12.79-12.2 12.5 12.5 0 0 1-12.79 12.24zm33.66 7.94a12.5 12.5 0 1 1 12.79-12.2 12.5 12.5 0 0 1-12.79 12.24zm6-47.59a12.5 12.5 0 1 1 12.2 12.79 12.5 12.5 0 0 1-12.17-12.76zm32.72 51.84a12.5 12.5 0 1 1 12.79-12.2 12.5 12.5 0 0 1-12.76 12.23zm18.51-34.31a12.5 12.5 0 1 1 12.79-12.2 12.5 12.5 0 0 1-12.76 12.23zm13.29-32.21a12.5 12.5 0 1 1 12.79-12.2 12.5 12.5 0 0 1-12.76 12.23zm34.38 7.22a12.5 12.5 0 1 1 12.79-12.2 12.5 12.5 0 0 1-12.79 12.2z"/></svg>