<?xml version="1.0" encoding="utf-8"?>
<!-- Generator: Adobe Illustrator 15.0.2, SVG Export Plug-In . SVG Version: 6.00 Build 0)  -->
<!DOCTYPE svg PUBLIC "-//W3C//DTD SVG 1.1//EN" "http://www.w3.org/Graphics/SVG/1.1/DTD/svg11.dtd">
<svg version="1.1" id="Layer_1" xmlns="http://www.w3.org/2000/svg" xmlns:xlink="http://www.w3.org/1999/xlink" x="0px" y="0px"
	 width="351.6px" height="401.4px" viewBox="0 0 351.6 401.4" style="enable-background:new 0 0 351.6 401.4;" xml:space="preserve"
	>
<style type="text/css">
<![CDATA[
	.st0{fill:url(#SVGID_1_);}
	.st1{fill:url(#SVGID_2_);}
	.st2{fill:url(#SVGID_3_);}
	.st3{fill:url(#SVGID_23_);}
	.st4{fill:url(#SVGID_24_);}
	.st5{fill:url(#SVGID_25_);}
	.st6{fill:url(#SVGID_45_);}
	.st7{fill:url(#SVGID_46_);}
	.st8{fill:url(#SVGID_47_);}
	.st9{fill:url(#SVGID_67_);}
	.st10{fill:url(#SVGID_68_);}
	.st11{fill-rule:evenodd;clip-rule:evenodd;fill:url(#SVGID_10_);}
	.st12{fill-rule:evenodd;clip-rule:evenodd;fill:url(#SVGID_11_);}
	.st13{fill-rule:evenodd;clip-rule:evenodd;fill:url(#SVGID_12_);}
	.st14{fill-rule:evenodd;clip-rule:evenodd;fill:url(#SVGID_13_);}
	.st15{fill-rule:evenodd;clip-rule:evenodd;fill:url(#SVGID_14_);}
	.st16{fill-rule:evenodd;clip-rule:evenodd;fill:url(#SVGID_15_);}
	.st17{fill-rule:evenodd;clip-rule:evenodd;fill:url(#SVGID_16_);}
	.st18{fill-rule:evenodd;clip-rule:evenodd;fill:url(#SVGID_17_);}
	.st19{fill-rule:evenodd;clip-rule:evenodd;fill:url(#SVGID_18_);}
	.st20{fill-rule:evenodd;clip-rule:evenodd;fill:url(#SVGID_19_);}
	.st21{fill-rule:evenodd;clip-rule:evenodd;fill:url(#SVGID_20_);}
	.st22{fill-rule:evenodd;clip-rule:evenodd;fill:url(#SVGID_21_);}
	.st23{fill-rule:evenodd;clip-rule:evenodd;fill:url(#SVGID_22_);}
	.st24{fill-rule:evenodd;clip-rule:evenodd;fill:url(#SVGID_26_);}
	.st25{fill-rule:evenodd;clip-rule:evenodd;fill:url(#SVGID_27_);}
	.st26{fill-rule:evenodd;clip-rule:evenodd;fill:url(#SVGID_28_);}
	.st27{fill-rule:evenodd;clip-rule:evenodd;fill:url(#SVGID_29_);}
	.st28{fill-rule:evenodd;clip-rule:evenodd;fill:url(#SVGID_30_);}
	.st29{fill-rule:evenodd;clip-rule:evenodd;fill:url(#SVGID_31_);}
	.st30{fill-rule:evenodd;clip-rule:evenodd;fill:url(#SVGID_32_);}
	.st31{fill-rule:evenodd;clip-rule:evenodd;fill:url(#SVGID_33_);}
	.st32{fill-rule:evenodd;clip-rule:evenodd;fill:url(#SVGID_34_);}
	.st33{fill-rule:evenodd;clip-rule:evenodd;fill:url(#SVGID_35_);}
	.st34{fill-rule:evenodd;clip-rule:evenodd;fill:url(#SVGID_36_);}
	.st35{fill-rule:evenodd;clip-rule:evenodd;fill:url(#SVGID_37_);}
	.st36{fill-rule:evenodd;clip-rule:evenodd;fill:url(#SVGID_38_);}
	.st37{fill-rule:evenodd;clip-rule:evenodd;fill:url(#SVGID_39_);}
	.st38{fill-rule:evenodd;clip-rule:evenodd;fill:url(#SVGID_40_);}
	.st39{fill-rule:evenodd;clip-rule:evenodd;fill:url(#SVGID_41_);}
	.st40{fill-rule:evenodd;clip-rule:evenodd;fill:url(#SVGID_42_);}
	.st41{fill-rule:evenodd;clip-rule:evenodd;fill:url(#SVGID_43_);}
	.st42{fill-rule:evenodd;clip-rule:evenodd;fill:url(#SVGID_44_);}
	.st43{fill-rule:evenodd;clip-rule:evenodd;fill:url(#SVGID_48_);}
	.st44{fill-rule:evenodd;clip-rule:evenodd;fill:url(#SVGID_49_);}
	.st45{fill-rule:evenodd;clip-rule:evenodd;fill:url(#SVGID_50_);}
	.st46{fill-rule:evenodd;clip-rule:evenodd;fill:url(#SVGID_51_);}
	.st47{fill-rule:evenodd;clip-rule:evenodd;fill:url(#SVGID_52_);}
	.st48{fill-rule:evenodd;clip-rule:evenodd;fill:url(#SVGID_53_);}
	.st49{fill-rule:evenodd;clip-rule:evenodd;fill:url(#SVGID_54_);}
	.st50{fill-rule:evenodd;clip-rule:evenodd;fill:url(#SVGID_55_);}
	.st51{fill-rule:evenodd;clip-rule:evenodd;fill:url(#SVGID_56_);}
	.st52{fill-rule:evenodd;clip-rule:evenodd;fill:url(#SVGID_57_);}
	.st53{fill-rule:evenodd;clip-rule:evenodd;fill:url(#SVGID_58_);}
	.st54{fill-rule:evenodd;clip-rule:evenodd;fill:url(#SVGID_59_);}
	.st55{fill-rule:evenodd;clip-rule:evenodd;fill:url(#SVGID_60_);}
	.st56{fill-rule:evenodd;clip-rule:evenodd;fill:url(#SVGID_61_);}
	.st57{fill-rule:evenodd;clip-rule:evenodd;fill:url(#SVGID_62_);}
	.st58{fill-rule:evenodd;clip-rule:evenodd;fill:url(#SVGID_63_);}
	.st59{fill-rule:evenodd;clip-rule:evenodd;fill:url(#SVGID_64_);}
	.st60{fill-rule:evenodd;clip-rule:evenodd;fill:url(#SVGID_65_);}
	.st61{fill-rule:evenodd;clip-rule:evenodd;fill:url(#SVGID_66_);}
	.st62{fill-rule:evenodd;clip-rule:evenodd;fill:url(#SVGID_4_);}
	.st63{fill-rule:evenodd;clip-rule:evenodd;fill:url(#SVGID_5_);}
	.st64{fill-rule:evenodd;clip-rule:evenodd;fill:url(#SVGID_6_);}
	.st65{fill-rule:evenodd;clip-rule:evenodd;fill:url(#SVGID_7_);}
	.st66{fill-rule:evenodd;clip-rule:evenodd;fill:url(#SVGID_8_);}
	.st67{fill-rule:evenodd;clip-rule:evenodd;fill:url(#SVGID_9_);}
]]>
</style>
<g>
	<g>
		
			<linearGradient id="SVGID_1_" gradientUnits="userSpaceOnUse" x1="478.2161" y1="461.0093" x2="478.2161" y2="299.1421" gradientTransform="matrix(-0.8808 0.4735 0.4735 0.8808 437.4389 -444.9571)">
			<stop  offset="0" style="stop-color:#01264B"/>
			<stop  offset="0.2157" style="stop-color:#013362"/>
			<stop  offset="0.5021" style="stop-color:#013F79"/>
			<stop  offset="0.7703" style="stop-color:#014787"/>
			<stop  offset="1" style="stop-color:#014A8C"/>
		</linearGradient>
		<path class="st0" d="M131.3,236.6c1.5,2.7,4.9,3.7,7.6,2.3l192.2-103.3c2.7-1.5,3.7-4.9,2.3-7.6L269.8,9.8
			c-1.5-2.7-4.9-3.7-7.6-2.3c0,0-98.9,54-99.2,53.4c-3.4-6.2-11.2-12.7-28.5-3.4c-18.7,10-72.9,40-72.9,40c-2.7,1.5-3.7,4.9-2.3,7.6
			L131.3,236.6z"/>
		<g>
			
				<image style="overflow:visible;" width="989" height="737" xlink:href="E95283B4.png"  transform="matrix(0.24 0 0 0.24 68.9329 8.6138)">
			</image>
			<g>
				
					<linearGradient id="SVGID_2_" gradientUnits="userSpaceOnUse" x1="-147.5002" y1="381.0854" x2="-147.5002" y2="326.2495" gradientTransform="matrix(0.8808 -0.4735 0.4735 0.8808 147.8101 -289.9846)">
					<stop  offset="0" style="stop-color:#DFDFDF"/>
					<stop  offset="0.198" style="stop-color:#E8E8E8"/>
					<stop  offset="0.6296" style="stop-color:#F6F6F6"/>
					<stop  offset="1" style="stop-color:#FBFBFB"/>
				</linearGradient>
				<path class="st1" d="M287,65.3c0.6,1.1,0.2,2.4-0.9,3l-175.4,94.3c-1.1,0.6-2.4,0.2-3-0.9l-23.8-44.4c-0.6-1.1-0.2-2.4,0.9-3
					l175.4-94.3c1.1-0.6,2.4-0.2,3,0.9L287,65.3z"/>
			</g>
		</g>
		
			<linearGradient id="SVGID_3_" gradientUnits="userSpaceOnUse" x1="-143.0266" y1="494.0991" x2="-143.0266" y2="335.2104" gradientTransform="matrix(0.8808 -0.4735 0.4735 0.8808 147.8101 -289.9846)">
			<stop  offset="0" style="stop-color:#01264B"/>
			<stop  offset="0.2157" style="stop-color:#013362"/>
			<stop  offset="0.5021" style="stop-color:#013F79"/>
			<stop  offset="0.7703" style="stop-color:#014787"/>
			<stop  offset="1" style="stop-color:#014A8C"/>
		</linearGradient>
		<path class="st2" d="M350.7,155.6c1.5,2.7,0.4,6.1-2.3,7.6L152.3,268.6c-2.7,1.5-6.1,0.4-7.6-2.3L83.8,152.9
			c-1.5-2.7-0.4-6.1,2.3-7.6c0,0,53.8-28.7,43.1-23.1c-6.3,3.3,15.4-6.5,23-16.2c7.2-9.2,15.9-26,33.2-35.3
			c18.7-10,98.6-53.5,98.6-53.5c2.7-1.5,6.1-0.4,7.6,2.3L350.7,155.6z"/>
		<g>
			
				<linearGradient id="SVGID_4_" gradientUnits="userSpaceOnUse" x1="-225.4456" y1="429.3267" x2="-225.4456" y2="412.3042" gradientTransform="matrix(0.8808 -0.4735 0.4735 0.8808 147.8101 -289.9846)">
				<stop  offset="0" style="stop-color:#41607F"/>
				<stop  offset="1" style="stop-color:#41709B"/>
			</linearGradient>
			<path class="st62" d="M152.5,194.9c4.1-2.2,5.7-7.4,3.5-11.5c-2.2-4.1-7.4-5.7-11.5-3.5c-4.1,2.2-5.7,7.4-3.5,11.5
				S148.4,197.1,152.5,194.9z"/>
			
				<linearGradient id="SVGID_5_" gradientUnits="userSpaceOnUse" x1="-207.6204" y1="413.7817" x2="-207.6204" y2="393.8442" gradientTransform="matrix(0.8808 -0.4735 0.4735 0.8808 147.8101 -289.9846)">
				<stop  offset="0" style="stop-color:#41607F"/>
				<stop  offset="1" style="stop-color:#41709B"/>
			</linearGradient>
			<path class="st63" d="M160.9,172.8c4.8-2.6,6.7-8.7,4.1-13.5c-2.6-4.8-8.7-6.7-13.5-4.1c-4.8,2.6-6.7,8.7-4.1,13.5
				C150,173.6,156,175.4,160.9,172.8z"/>
			
				<linearGradient id="SVGID_6_" gradientUnits="userSpaceOnUse" x1="-186.8528" y1="397.1265" x2="-186.8528" y2="375.4985" gradientTransform="matrix(0.8808 -0.4735 0.4735 0.8808 147.8101 -289.9846)">
				<stop  offset="0" style="stop-color:#41607F"/>
				<stop  offset="1" style="stop-color:#41709B"/>
			</linearGradient>
			<path class="st64" d="M171.3,148.3c5.2-2.8,7.2-9.4,4.4-14.6c-2.8-5.2-9.4-7.2-14.6-4.4c-5.2,2.8-7.2,9.4-4.4,14.6
				C159.4,149.1,166,151.1,171.3,148.3z"/>
			
				<linearGradient id="SVGID_7_" gradientUnits="userSpaceOnUse" x1="-241.51" y1="446.563" x2="-241.51" y2="431.0269" gradientTransform="matrix(0.8808 -0.4735 0.4735 0.8808 147.8101 -289.9846)">
				<stop  offset="0" style="stop-color:#41607F"/>
				<stop  offset="1" style="stop-color:#41709B"/>
			</linearGradient>
			<path class="st65" d="M146.5,217.7c3.8-2,5.2-6.8,3.2-10.5c-2-3.8-6.7-5.2-10.5-3.2c-3.8,2-5.2,6.8-3.2,10.5
				S142.8,219.7,146.5,217.7z"/>
			
				<linearGradient id="SVGID_8_" gradientUnits="userSpaceOnUse" x1="-147.1594" y1="429.3296" x2="-147.1594" y2="412.3071" gradientTransform="matrix(0.8808 -0.4735 0.4735 0.8808 147.8101 -289.9846)">
				<stop  offset="0" style="stop-color:#41607F"/>
				<stop  offset="1" style="stop-color:#41709B"/>
			</linearGradient>
			<path class="st66" d="M221.5,157.8c4.1-2.2,5.7-7.4,3.5-11.5c-2.2-4.1-7.4-5.7-11.5-3.5c-4.1,2.2-5.7,7.4-3.5,11.5
				C212.2,158.5,217.4,160.1,221.5,157.8z"/>
			
				<linearGradient id="SVGID_9_" gradientUnits="userSpaceOnUse" x1="-164.9836" y1="413.7827" x2="-164.9836" y2="393.8452" gradientTransform="matrix(0.8808 -0.4735 0.4735 0.8808 147.8101 -289.9846)">
				<stop  offset="0" style="stop-color:#41607F"/>
				<stop  offset="1" style="stop-color:#41709B"/>
			</linearGradient>
			<path class="st67" d="M198.4,152.6c4.8-2.6,6.7-8.7,4.1-13.5c-2.6-4.8-8.7-6.7-13.5-4.1c-4.8,2.6-6.7,8.7-4.1,13.5
				C187.5,153.4,193.6,155.2,198.4,152.6z"/>
			
				<linearGradient id="SVGID_10_" gradientUnits="userSpaceOnUse" x1="-130.0237" y1="413.7837" x2="-130.0237" y2="393.8481" gradientTransform="matrix(0.8808 -0.4735 0.4735 0.8808 147.8101 -289.9846)">
				<stop  offset="0" style="stop-color:#41607F"/>
				<stop  offset="1" style="stop-color:#41709B"/>
			</linearGradient>
			<path class="st11" d="M229.2,136c4.8-2.6,6.7-8.7,4.1-13.5c-2.6-4.8-8.7-6.7-13.5-4.1c-4.8,2.6-6.7,8.7-4.1,13.5
				C218.3,136.8,224.4,138.6,229.2,136z"/>
			
				<linearGradient id="SVGID_11_" gradientUnits="userSpaceOnUse" x1="-109.26" y1="397.1284" x2="-109.26" y2="375.5024" gradientTransform="matrix(0.8808 -0.4735 0.4735 0.8808 147.8101 -289.9846)">
				<stop  offset="0" style="stop-color:#41607F"/>
				<stop  offset="1" style="stop-color:#41709B"/>
			</linearGradient>
			<path class="st12" d="M239.6,111.5c5.2-2.8,7.2-9.4,4.4-14.6c-2.8-5.2-9.4-7.2-14.6-4.4c-5.2,2.8-7.2,9.4-4.4,14.6
				C227.8,112.4,234.4,114.4,239.6,111.5z"/>
			
				<linearGradient id="SVGID_12_" gradientUnits="userSpaceOnUse" x1="-186.8547" y1="429.3296" x2="-186.8547" y2="412.3843" gradientTransform="matrix(0.8808 -0.4735 0.4735 0.8808 147.8101 -289.9846)">
				<stop  offset="0" style="stop-color:#41607F"/>
				<stop  offset="1" style="stop-color:#41709B"/>
			</linearGradient>
			<circle class="st13" cx="182.5" cy="169.2" r="8.5"/>
			
				<linearGradient id="SVGID_13_" gradientUnits="userSpaceOnUse" x1="-207.6208" y1="446.564" x2="-207.6208" y2="431.0278" gradientTransform="matrix(0.8808 -0.4735 0.4735 0.8808 147.8101 -289.9846)">
				<stop  offset="0" style="stop-color:#41607F"/>
				<stop  offset="1" style="stop-color:#41709B"/>
			</linearGradient>
			<path class="st14" d="M176.4,201.7c3.8-2,5.2-6.8,3.2-10.5c-2-3.8-6.8-5.2-10.5-3.2c-3.8,2-5.2,6.8-3.2,10.5
				C167.9,202.3,172.6,203.7,176.4,201.7z"/>
			
				<linearGradient id="SVGID_14_" gradientUnits="userSpaceOnUse" x1="-186.8557" y1="463.9604" x2="-186.8557" y2="447.0171" gradientTransform="matrix(0.8808 -0.4735 0.4735 0.8808 147.8101 -289.9846)">
				<stop  offset="0" style="stop-color:#41607F"/>
				<stop  offset="1" style="stop-color:#41709B"/>
			</linearGradient>
			<circle class="st15" cx="198.9" cy="199.7" r="8.5"/>
			
				<linearGradient id="SVGID_15_" gradientUnits="userSpaceOnUse" x1="-109.26" y1="429.3315" x2="-109.26" y2="412.3872" gradientTransform="matrix(0.8808 -0.4735 0.4735 0.8808 147.8101 -289.9846)">
				<stop  offset="0" style="stop-color:#41607F"/>
				<stop  offset="1" style="stop-color:#41709B"/>
			</linearGradient>
			<circle class="st16" cx="250.9" cy="132.4" r="8.5"/>
			
				<linearGradient id="SVGID_16_" gradientUnits="userSpaceOnUse" x1="-163.9143" y1="446.5659" x2="-163.9143" y2="431.0288" gradientTransform="matrix(0.8808 -0.4735 0.4735 0.8808 147.8101 -289.9846)">
				<stop  offset="0" style="stop-color:#41607F"/>
				<stop  offset="1" style="stop-color:#41709B"/>
			</linearGradient>
			<path class="st17" d="M214.9,181c3.8-2,5.2-6.8,3.2-10.5c-2-3.8-6.8-5.2-10.5-3.2s-5.2,6.8-3.2,10.5
				C206.4,181.6,211.1,183,214.9,181z"/>
			
				<linearGradient id="SVGID_17_" gradientUnits="userSpaceOnUse" x1="-130.0266" y1="446.5679" x2="-130.0266" y2="431.0308" gradientTransform="matrix(0.8808 -0.4735 0.4735 0.8808 147.8101 -289.9846)">
				<stop  offset="0" style="stop-color:#41607F"/>
				<stop  offset="1" style="stop-color:#41709B"/>
			</linearGradient>
			<path class="st18" d="M244.7,164.9c3.8-2,5.2-6.7,3.2-10.5c-2-3.8-6.8-5.2-10.5-3.2c-3.8,2-5.2,6.8-3.2,10.5
				C236.2,165.5,241,166.9,244.7,164.9z"/>
			
				<linearGradient id="SVGID_18_" gradientUnits="userSpaceOnUse" x1="-88.5583" y1="446.5698" x2="-88.5583" y2="431.0327" gradientTransform="matrix(0.8808 -0.4735 0.4735 0.8808 147.8101 -289.9846)">
				<stop  offset="0" style="stop-color:#41607F"/>
				<stop  offset="1" style="stop-color:#41709B"/>
			</linearGradient>
			<path class="st19" d="M281.3,145.3c3.8-2,5.2-6.8,3.2-10.5c-2-3.8-6.8-5.2-10.5-3.2c-3.8,2-5.2,6.8-3.2,10.5
				C272.8,145.9,277.5,147.3,281.3,145.3z"/>
			
				<linearGradient id="SVGID_19_" gradientUnits="userSpaceOnUse" x1="-109.262" y1="463.9634" x2="-109.262" y2="447.019" gradientTransform="matrix(0.8808 -0.4735 0.4735 0.8808 147.8101 -289.9846)">
				<stop  offset="0" style="stop-color:#41607F"/>
				<stop  offset="1" style="stop-color:#41709B"/>
			</linearGradient>
			<circle class="st20" cx="267.2" cy="162.9" r="8.5"/>
			
				<linearGradient id="SVGID_20_" gradientUnits="userSpaceOnUse" x1="-69.5632" y1="429.3325" x2="-69.5632" y2="412.3101" gradientTransform="matrix(0.8808 -0.4735 0.4735 0.8808 147.8101 -289.9846)">
				<stop  offset="0" style="stop-color:#41607F"/>
				<stop  offset="1" style="stop-color:#41709B"/>
			</linearGradient>
			<path class="st21" d="M289.8,121.1c4.1-2.2,5.7-7.4,3.5-11.5c-2.2-4.1-7.4-5.7-11.5-3.5c-4.1,2.2-5.7,7.4-3.5,11.5
				C280.5,121.8,285.7,123.3,289.8,121.1z"/>
			
				<linearGradient id="SVGID_21_" gradientUnits="userSpaceOnUse" x1="-87.387" y1="413.7856" x2="-87.387" y2="393.8491" gradientTransform="matrix(0.8808 -0.4735 0.4735 0.8808 147.8101 -289.9846)">
				<stop  offset="0" style="stop-color:#41607F"/>
				<stop  offset="1" style="stop-color:#41709B"/>
			</linearGradient>
			<path class="st22" d="M266.8,115.9c4.8-2.6,6.7-8.7,4.1-13.5c-2.6-4.8-8.7-6.7-13.5-4.1c-4.8,2.6-6.7,8.7-4.1,13.5
				C255.9,116.6,261.9,118.5,266.8,115.9z"/>
			
				<linearGradient id="SVGID_22_" gradientUnits="userSpaceOnUse" x1="-53.5012" y1="446.5708" x2="-53.5012" y2="431.0337" gradientTransform="matrix(0.8808 -0.4735 0.4735 0.8808 147.8101 -289.9846)">
				<stop  offset="0" style="stop-color:#41607F"/>
				<stop  offset="1" style="stop-color:#41709B"/>
			</linearGradient>
			<path class="st23" d="M312.1,128.7c3.8-2,5.2-6.8,3.2-10.5c-2-3.8-6.8-5.2-10.5-3.2c-3.8,2-5.2,6.8-3.2,10.5
				C303.6,129.3,308.4,130.7,312.1,128.7z"/>
		</g>
	</g>
	<g>
		
			<linearGradient id="SVGID_23_" gradientUnits="userSpaceOnUse" x1="524.675" y1="491.9302" x2="524.675" y2="330.064" gradientTransform="matrix(-0.8808 0.4735 0.4735 0.8808 437.4389 -444.9571)">
			<stop  offset="0" style="stop-color:#014A8C"/>
			<stop  offset="0.2297" style="stop-color:#014787"/>
			<stop  offset="0.4979" style="stop-color:#013F79"/>
			<stop  offset="0.7843" style="stop-color:#013362"/>
			<stop  offset="1" style="stop-color:#01264B"/>
		</linearGradient>
		<path class="st3" d="M105,285.9c1.5,2.7,4.9,3.7,7.6,2.3l192.2-103.3c2.7-1.5,3.7-4.9,2.3-7.6L243.5,59c-1.5-2.7-4.9-3.7-7.6-2.3
			c0,0-98.9,54-99.2,53.4c-3.4-6.2-11.2-12.7-28.5-3.4c-18.7,10-72.9,40-72.9,40c-2.7,1.5-3.7,4.9-2.3,7.6L105,285.9z"/>
		<g>
			
				<image style="overflow:visible;" width="989" height="737" xlink:href="E95283B5.png"  transform="matrix(0.24 0 0 0.24 42.6531 57.8467)">
			</image>
			<g>
				
					<linearGradient id="SVGID_24_" gradientUnits="userSpaceOnUse" x1="-193.9583" y1="412.0063" x2="-193.9583" y2="357.1714" gradientTransform="matrix(0.8808 -0.4735 0.4735 0.8808 147.8101 -289.9846)">
					<stop  offset="0" style="stop-color:#DFDFDF"/>
					<stop  offset="0.198" style="stop-color:#E8E8E8"/>
					<stop  offset="0.6296" style="stop-color:#F6F6F6"/>
					<stop  offset="1" style="stop-color:#FBFBFB"/>
				</linearGradient>
				<path class="st4" d="M260.7,114.6c0.6,1.1,0.2,2.4-0.9,3L84.3,211.9c-1.1,0.6-2.4,0.2-3-0.9l-23.8-44.4c-0.6-1.1-0.2-2.4,0.9-3
					l175.4-94.3c1.1-0.6,2.4-0.2,3,0.9L260.7,114.6z"/>
			</g>
		</g>
		
			<linearGradient id="SVGID_25_" gradientUnits="userSpaceOnUse" x1="-189.4846" y1="525.019" x2="-189.4846" y2="366.1313" gradientTransform="matrix(0.8808 -0.4735 0.4735 0.8808 147.8101 -289.9846)">
			<stop  offset="0" style="stop-color:#014A8C"/>
			<stop  offset="0.2297" style="stop-color:#014787"/>
			<stop  offset="0.4979" style="stop-color:#013F79"/>
			<stop  offset="0.7843" style="stop-color:#013362"/>
			<stop  offset="1" style="stop-color:#01264B"/>
		</linearGradient>
		<path class="st5" d="M324.4,204.8c1.5,2.7,0.4,6.1-2.3,7.6L126,317.8c-2.7,1.5-6.1,0.4-7.6-2.3L57.5,202.2
			c-1.5-2.7-0.4-6.1,2.3-7.6c0,0,53.8-28.7,43.1-23.1c-6.3,3.3,15.4-6.5,23-16.2c7.2-9.2,15.9-26,33.2-35.3
			c18.7-10,98.6-53.5,98.6-53.5c2.7-1.5,6.1-0.4,7.6,2.3L324.4,204.8z"/>
		<g>
			
				<linearGradient id="SVGID_26_" gradientUnits="userSpaceOnUse" x1="-271.9036" y1="460.2466" x2="-271.9036" y2="443.2251" gradientTransform="matrix(0.8808 -0.4735 0.4735 0.8808 147.8101 -289.9846)">
				<stop  offset="0" style="stop-color:#41607F"/>
				<stop  offset="1" style="stop-color:#41709B"/>
			</linearGradient>
			<path class="st24" d="M126.2,244.1c4.1-2.2,5.7-7.4,3.5-11.5c-2.2-4.1-7.4-5.7-11.5-3.5c-4.1,2.2-5.7,7.4-3.5,11.5
				C116.9,244.8,122.1,246.4,126.2,244.1z"/>
			
				<linearGradient id="SVGID_27_" gradientUnits="userSpaceOnUse" x1="-254.0793" y1="444.7017" x2="-254.0793" y2="424.7651" gradientTransform="matrix(0.8808 -0.4735 0.4735 0.8808 147.8101 -289.9846)">
				<stop  offset="0" style="stop-color:#41607F"/>
				<stop  offset="1" style="stop-color:#41709B"/>
			</linearGradient>
			<path class="st25" d="M134.6,222c4.8-2.6,6.7-8.7,4.1-13.5c-2.6-4.8-8.7-6.7-13.5-4.1c-4.8,2.6-6.7,8.7-4.1,13.5
				C123.7,222.8,129.7,224.6,134.6,222z"/>
			
				<linearGradient id="SVGID_28_" gradientUnits="userSpaceOnUse" x1="-233.3118" y1="428.0474" x2="-233.3118" y2="406.4194" gradientTransform="matrix(0.8808 -0.4735 0.4735 0.8808 147.8101 -289.9846)">
				<stop  offset="0" style="stop-color:#41607F"/>
				<stop  offset="1" style="stop-color:#41709B"/>
			</linearGradient>
			<path class="st26" d="M145,197.5c5.2-2.8,7.2-9.4,4.4-14.6c-2.8-5.2-9.4-7.2-14.6-4.4c-5.2,2.8-7.2,9.4-4.4,14.6
				C133.2,198.4,139.7,200.3,145,197.5z"/>
			
				<linearGradient id="SVGID_29_" gradientUnits="userSpaceOnUse" x1="-287.9685" y1="477.4849" x2="-287.9685" y2="461.9468" gradientTransform="matrix(0.8808 -0.4735 0.4735 0.8808 147.8101 -289.9846)">
				<stop  offset="0" style="stop-color:#41607F"/>
				<stop  offset="1" style="stop-color:#41709B"/>
			</linearGradient>
			<path class="st27" d="M120.3,266.9c3.8-2,5.2-6.8,3.2-10.5c-2-3.8-6.7-5.2-10.5-3.2c-3.8,2-5.2,6.8-3.2,10.5
				C111.8,267.5,116.5,269,120.3,266.9z"/>
			
				<linearGradient id="SVGID_30_" gradientUnits="userSpaceOnUse" x1="-193.6194" y1="460.2505" x2="-193.6194" y2="443.229" gradientTransform="matrix(0.8808 -0.4735 0.4735 0.8808 147.8101 -289.9846)">
				<stop  offset="0" style="stop-color:#41607F"/>
				<stop  offset="1" style="stop-color:#41709B"/>
			</linearGradient>
			<path class="st28" d="M195.2,207.1c4.1-2.2,5.7-7.4,3.5-11.5c-2.2-4.1-7.4-5.7-11.5-3.5c-4.1,2.2-5.7,7.4-3.5,11.5
				C185.9,207.7,191.1,209.3,195.2,207.1z"/>
			
				<linearGradient id="SVGID_31_" gradientUnits="userSpaceOnUse" x1="-211.4426" y1="444.7026" x2="-211.4426" y2="424.7671" gradientTransform="matrix(0.8808 -0.4735 0.4735 0.8808 147.8101 -289.9846)">
				<stop  offset="0" style="stop-color:#41607F"/>
				<stop  offset="1" style="stop-color:#41709B"/>
			</linearGradient>
			<path class="st29" d="M172.1,201.8c4.8-2.6,6.7-8.7,4.1-13.5c-2.6-4.8-8.7-6.7-13.5-4.1c-4.8,2.6-6.7,8.7-4.1,13.5
				C161.2,202.6,167.3,204.4,172.1,201.8z"/>
			
				<linearGradient id="SVGID_32_" gradientUnits="userSpaceOnUse" x1="-176.4836" y1="444.7046" x2="-176.4836" y2="424.769" gradientTransform="matrix(0.8808 -0.4735 0.4735 0.8808 147.8101 -289.9846)">
				<stop  offset="0" style="stop-color:#41607F"/>
				<stop  offset="1" style="stop-color:#41709B"/>
			</linearGradient>
			<path class="st30" d="M202.9,185.3c4.8-2.6,6.7-8.7,4.1-13.5c-2.6-4.8-8.7-6.7-13.5-4.1c-4.8,2.6-6.7,8.7-4.1,13.5
				C192,186.1,198.1,187.9,202.9,185.3z"/>
			
				<linearGradient id="SVGID_33_" gradientUnits="userSpaceOnUse" x1="-155.718" y1="428.0493" x2="-155.718" y2="406.4224" gradientTransform="matrix(0.8808 -0.4735 0.4735 0.8808 147.8101 -289.9846)">
				<stop  offset="0" style="stop-color:#41607F"/>
				<stop  offset="1" style="stop-color:#41709B"/>
			</linearGradient>
			<path class="st31" d="M213.3,160.8c5.2-2.8,7.2-9.4,4.4-14.6c-2.8-5.2-9.4-7.2-14.6-4.4c-5.2,2.8-7.2,9.4-4.4,14.6
				C201.5,161.6,208.1,163.6,213.3,160.8z"/>
			
				<linearGradient id="SVGID_34_" gradientUnits="userSpaceOnUse" x1="-233.3127" y1="460.2495" x2="-233.3127" y2="443.3042" gradientTransform="matrix(0.8808 -0.4735 0.4735 0.8808 147.8101 -289.9846)">
				<stop  offset="0" style="stop-color:#41607F"/>
				<stop  offset="1" style="stop-color:#41709B"/>
			</linearGradient>
			<path class="st32" d="M152.2,211c4.1-2.2,9.3-0.7,11.5,3.4c2.2,4.1,0.7,9.3-3.5,11.5c-4.1,2.2-9.3,0.7-11.5-3.5
				C146.5,218.3,148.1,213.2,152.2,211z"/>
			
				<linearGradient id="SVGID_35_" gradientUnits="userSpaceOnUse" x1="-254.0798" y1="477.4858" x2="-254.0798" y2="461.9487" gradientTransform="matrix(0.8808 -0.4735 0.4735 0.8808 147.8101 -289.9846)">
				<stop  offset="0" style="stop-color:#41607F"/>
				<stop  offset="1" style="stop-color:#41709B"/>
			</linearGradient>
			<path class="st33" d="M150.1,250.9c3.8-2,5.2-6.8,3.2-10.5c-2-3.8-6.8-5.2-10.5-3.2c-3.8,2-5.2,6.8-3.2,10.5
				C141.6,251.5,146.3,252.9,150.1,250.9z"/>
			
				<linearGradient id="SVGID_36_" gradientUnits="userSpaceOnUse" x1="-233.3142" y1="494.8804" x2="-233.3142" y2="477.938" gradientTransform="matrix(0.8808 -0.4735 0.4735 0.8808 147.8101 -289.9846)">
				<stop  offset="0" style="stop-color:#41607F"/>
				<stop  offset="1" style="stop-color:#41709B"/>
			</linearGradient>
			<path class="st34" d="M168.6,241.5c4.1-2.2,9.3-0.7,11.5,3.4c2.2,4.1,0.7,9.3-3.5,11.5c-4.1,2.2-9.3,0.7-11.5-3.5
				C162.9,248.8,164.5,243.7,168.6,241.5z"/>
			
				<linearGradient id="SVGID_37_" gradientUnits="userSpaceOnUse" x1="-155.719" y1="460.2515" x2="-155.719" y2="443.3071" gradientTransform="matrix(0.8808 -0.4735 0.4735 0.8808 147.8101 -289.9846)">
				<stop  offset="0" style="stop-color:#41607F"/>
				<stop  offset="1" style="stop-color:#41709B"/>
			</linearGradient>
			<path class="st35" d="M220.6,174.2c4.1-2.2,9.3-0.7,11.5,3.4c2.2,4.1,0.7,9.3-3.5,11.5c-4.1,2.2-9.3,0.7-11.5-3.5
				C214.9,181.6,216.4,176.4,220.6,174.2z"/>
			
				<linearGradient id="SVGID_38_" gradientUnits="userSpaceOnUse" x1="-210.3733" y1="477.4868" x2="-210.3733" y2="461.9497" gradientTransform="matrix(0.8808 -0.4735 0.4735 0.8808 147.8101 -289.9846)">
				<stop  offset="0" style="stop-color:#41607F"/>
				<stop  offset="1" style="stop-color:#41709B"/>
			</linearGradient>
			<path class="st36" d="M188.6,230.2c3.8-2,5.2-6.8,3.2-10.5c-2-3.8-6.8-5.2-10.5-3.2c-3.8,2-5.2,6.8-3.2,10.5
				C180.1,230.8,184.8,232.2,188.6,230.2z"/>
			
				<linearGradient id="SVGID_39_" gradientUnits="userSpaceOnUse" x1="-176.4846" y1="477.4878" x2="-176.4846" y2="461.9507" gradientTransform="matrix(0.8808 -0.4735 0.4735 0.8808 147.8101 -289.9846)">
				<stop  offset="0" style="stop-color:#41607F"/>
				<stop  offset="1" style="stop-color:#41709B"/>
			</linearGradient>
			<path class="st37" d="M218.5,214.2c3.8-2,5.2-6.8,3.2-10.5c-2-3.8-6.8-5.2-10.5-3.2c-3.8,2-5.2,6.8-3.2,10.5
				C210,214.8,214.7,216.2,218.5,214.2z"/>
			
				<linearGradient id="SVGID_40_" gradientUnits="userSpaceOnUse" x1="-135.0173" y1="477.4907" x2="-135.0173" y2="461.9536" gradientTransform="matrix(0.8808 -0.4735 0.4735 0.8808 147.8101 -289.9846)">
				<stop  offset="0" style="stop-color:#41607F"/>
				<stop  offset="1" style="stop-color:#41709B"/>
			</linearGradient>
			<path class="st38" d="M255,194.5c3.8-2,5.2-6.8,3.2-10.5c-2-3.8-6.8-5.2-10.5-3.2c-3.8,2-5.2,6.8-3.2,10.5
				C246.5,195.1,251.2,196.5,255,194.5z"/>
			
				<linearGradient id="SVGID_41_" gradientUnits="userSpaceOnUse" x1="-155.7205" y1="494.8843" x2="-155.7205" y2="477.9409" gradientTransform="matrix(0.8808 -0.4735 0.4735 0.8808 147.8101 -289.9846)">
				<stop  offset="0" style="stop-color:#41607F"/>
				<stop  offset="1" style="stop-color:#41709B"/>
			</linearGradient>
			<circle class="st39" cx="241" cy="212.2" r="8.5"/>
			
				<linearGradient id="SVGID_42_" gradientUnits="userSpaceOnUse" x1="-116.0227" y1="460.2534" x2="-116.0227" y2="443.231" gradientTransform="matrix(0.8808 -0.4735 0.4735 0.8808 147.8101 -289.9846)">
				<stop  offset="0" style="stop-color:#41607F"/>
				<stop  offset="1" style="stop-color:#41709B"/>
			</linearGradient>
			<path class="st40" d="M263.5,170.3c4.1-2.2,5.7-7.4,3.5-11.5c-2.2-4.1-7.4-5.7-11.5-3.5c-4.1,2.2-5.7,7.4-3.5,11.5
				C254.2,171,259.4,172.6,263.5,170.3z"/>
			
				<linearGradient id="SVGID_43_" gradientUnits="userSpaceOnUse" x1="-133.845" y1="444.7065" x2="-133.845" y2="424.77" gradientTransform="matrix(0.8808 -0.4735 0.4735 0.8808 147.8101 -289.9846)">
				<stop  offset="0" style="stop-color:#41607F"/>
				<stop  offset="1" style="stop-color:#41709B"/>
			</linearGradient>
			<path class="st41" d="M240.5,165.1c4.8-2.6,6.7-8.7,4.1-13.5c-2.6-4.8-8.7-6.7-13.5-4.1c-4.8,2.6-6.7,8.7-4.1,13.5
				C229.6,165.9,235.6,167.7,240.5,165.1z"/>
			
				<linearGradient id="SVGID_44_" gradientUnits="userSpaceOnUse" x1="-99.9592" y1="477.4917" x2="-99.9592" y2="461.9556" gradientTransform="matrix(0.8808 -0.4735 0.4735 0.8808 147.8101 -289.9846)">
				<stop  offset="0" style="stop-color:#41607F"/>
				<stop  offset="1" style="stop-color:#41709B"/>
			</linearGradient>
			<path class="st42" d="M285.9,177.9c3.8-2,5.2-6.8,3.2-10.5c-2-3.8-6.8-5.2-10.5-3.2c-3.8,2-5.2,6.8-3.2,10.5
				C277.4,178.5,282.1,179.9,285.9,177.9z"/>
		</g>
	</g>
	<g>
		
			<linearGradient id="SVGID_45_" gradientUnits="userSpaceOnUse" x1="572.0647" y1="535.1831" x2="572.0647" y2="373.3169" gradientTransform="matrix(-0.8808 0.4735 0.4735 0.8808 437.4389 -444.9571)">
			<stop  offset="0" style="stop-color:#01264B"/>
			<stop  offset="0.2157" style="stop-color:#013362"/>
			<stop  offset="0.5021" style="stop-color:#013F79"/>
			<stop  offset="0.7703" style="stop-color:#014787"/>
			<stop  offset="1" style="stop-color:#014A8C"/>
		</linearGradient>
		<path class="st6" d="M83.8,346.4c1.5,2.7,4.9,3.7,7.6,2.3l192.2-103.3c2.7-1.5,3.7-4.9,2.3-7.6l-63.6-118.3
			c-1.5-2.7-4.9-3.7-7.6-2.3c0,0-98.9,54-99.2,53.4c-3.4-6.2-11.2-12.7-28.5-3.4c-18.7,10-72.9,40-72.9,40c-2.7,1.5-3.7,4.9-2.3,7.6
			L83.8,346.4z"/>
		<g>
			
				<image style="overflow:visible;" width="989" height="737" xlink:href="E95283B3.png"  transform="matrix(0.24 0 0 0.24 21.3933 118.3828)">
			</image>
			<g>
				
					<linearGradient id="SVGID_46_" gradientUnits="userSpaceOnUse" x1="-241.3479" y1="455.2593" x2="-241.3479" y2="400.4253" gradientTransform="matrix(0.8808 -0.4735 0.4735 0.8808 147.8101 -289.9846)">
					<stop  offset="0" style="stop-color:#DFDFDF"/>
					<stop  offset="0.198" style="stop-color:#E8E8E8"/>
					<stop  offset="0.6296" style="stop-color:#F6F6F6"/>
					<stop  offset="1" style="stop-color:#FBFBFB"/>
				</linearGradient>
				<path class="st7" d="M239.4,175.1c0.6,1.1,0.2,2.4-0.9,3L63.1,272.4c-1.1,0.6-2.4,0.2-3-0.9l-23.8-44.4c-0.6-1.1-0.2-2.4,0.9-3
					l175.4-94.3c1.1-0.6,2.4-0.2,3,0.9L239.4,175.1z"/>
			</g>
		</g>
		
			<linearGradient id="SVGID_47_" gradientUnits="userSpaceOnUse" x1="-236.8743" y1="568.2729" x2="-236.8743" y2="409.3843" gradientTransform="matrix(0.8808 -0.4735 0.4735 0.8808 147.8101 -289.9846)">
			<stop  offset="0" style="stop-color:#01264B"/>
			<stop  offset="0.2157" style="stop-color:#013362"/>
			<stop  offset="0.5021" style="stop-color:#013F79"/>
			<stop  offset="0.7703" style="stop-color:#014787"/>
			<stop  offset="1" style="stop-color:#014A8C"/>
		</linearGradient>
		<path class="st8" d="M303.2,265.3c1.5,2.7,0.4,6.1-2.3,7.6L104.8,378.3c-2.7,1.5-6.1,0.4-7.6-2.3L36.3,262.7
			c-1.5-2.7-0.4-6.1,2.3-7.6c0,0,53.8-28.7,43.1-23.1c-6.3,3.3,15.4-6.5,23-16.2c7.2-9.2,15.9-26,33.2-35.3
			c18.7-10,98.6-53.5,98.6-53.5c2.7-1.5,6.1-0.4,7.6,2.3L303.2,265.3z"/>
		<g>
			
				<linearGradient id="SVGID_48_" gradientUnits="userSpaceOnUse" x1="-319.2922" y1="503.4995" x2="-319.2922" y2="486.478" gradientTransform="matrix(0.8808 -0.4735 0.4735 0.8808 147.8101 -289.9846)">
				<stop  offset="0" style="stop-color:#41607F"/>
				<stop  offset="1" style="stop-color:#41709B"/>
			</linearGradient>
			<path class="st43" d="M105,304.7c4.1-2.2,5.7-7.4,3.5-11.5c-2.2-4.1-7.4-5.7-11.5-3.5c-4.1,2.2-5.7,7.4-3.5,11.5
				C95.7,305.3,100.9,306.9,105,304.7z"/>
			
				<linearGradient id="SVGID_49_" gradientUnits="userSpaceOnUse" x1="-301.4685" y1="487.9556" x2="-301.4685" y2="468.019" gradientTransform="matrix(0.8808 -0.4735 0.4735 0.8808 147.8101 -289.9846)">
				<stop  offset="0" style="stop-color:#41607F"/>
				<stop  offset="1" style="stop-color:#41709B"/>
			</linearGradient>
			<path class="st44" d="M113.3,282.6c4.8-2.6,6.7-8.7,4.1-13.5c-2.6-4.8-8.7-6.7-13.5-4.1c-4.8,2.6-6.7,8.7-4.1,13.5
				C102.4,283.3,108.5,285.1,113.3,282.6z"/>
			
				<linearGradient id="SVGID_50_" gradientUnits="userSpaceOnUse" x1="-280.7004" y1="471.2993" x2="-280.7004" y2="449.6724" gradientTransform="matrix(0.8808 -0.4735 0.4735 0.8808 147.8101 -289.9846)">
				<stop  offset="0" style="stop-color:#41607F"/>
				<stop  offset="1" style="stop-color:#41709B"/>
			</linearGradient>
			<path class="st45" d="M123.7,258c5.2-2.8,7.2-9.4,4.4-14.6c-2.8-5.2-9.4-7.2-14.6-4.4c-5.2,2.8-7.2,9.4-4.4,14.6
				C111.9,258.9,118.5,260.9,123.7,258z"/>
			
				<linearGradient id="SVGID_51_" gradientUnits="userSpaceOnUse" x1="-335.3577" y1="520.7378" x2="-335.3577" y2="505.2007" gradientTransform="matrix(0.8808 -0.4735 0.4735 0.8808 147.8101 -289.9846)">
				<stop  offset="0" style="stop-color:#41607F"/>
				<stop  offset="1" style="stop-color:#41709B"/>
			</linearGradient>
			<path class="st46" d="M99,327.5c3.8-2,5.2-6.8,3.2-10.5c-2-3.8-6.8-5.2-10.5-3.2c-3.8,2-5.2,6.8-3.2,10.5
				C90.5,328.1,95.2,329.5,99,327.5z"/>
			
				<linearGradient id="SVGID_52_" gradientUnits="userSpaceOnUse" x1="-241.0081" y1="503.5034" x2="-241.0081" y2="486.4819" gradientTransform="matrix(0.8808 -0.4735 0.4735 0.8808 147.8101 -289.9846)">
				<stop  offset="0" style="stop-color:#41607F"/>
				<stop  offset="1" style="stop-color:#41709B"/>
			</linearGradient>
			<path class="st47" d="M173.9,267.6c4.1-2.2,5.7-7.4,3.5-11.5c-2.2-4.1-7.4-5.7-11.5-3.5c-4.1,2.2-5.7,7.4-3.5,11.5
				C164.6,268.3,169.8,269.8,173.9,267.6z"/>
			
				<linearGradient id="SVGID_53_" gradientUnits="userSpaceOnUse" x1="-258.8308" y1="487.9565" x2="-258.8308" y2="468.02" gradientTransform="matrix(0.8808 -0.4735 0.4735 0.8808 147.8101 -289.9846)">
				<stop  offset="0" style="stop-color:#41607F"/>
				<stop  offset="1" style="stop-color:#41709B"/>
			</linearGradient>
			<path class="st48" d="M150.9,262.4c4.8-2.6,6.7-8.7,4.1-13.5c-2.6-4.8-8.7-6.7-13.5-4.1c-4.8,2.6-6.7,8.7-4.1,13.5
				C140,263.1,146,265,150.9,262.4z"/>
			
				<linearGradient id="SVGID_54_" gradientUnits="userSpaceOnUse" x1="-223.8718" y1="487.9575" x2="-223.8718" y2="468.022" gradientTransform="matrix(0.8808 -0.4735 0.4735 0.8808 147.8101 -289.9846)">
				<stop  offset="0" style="stop-color:#41607F"/>
				<stop  offset="1" style="stop-color:#41709B"/>
			</linearGradient>
			<path class="st49" d="M181.7,245.8c4.8-2.6,6.7-8.7,4.1-13.5c-2.6-4.8-8.7-6.7-13.5-4.1c-4.8,2.6-6.7,8.7-4.1,13.5
				C170.8,246.6,176.8,248.4,181.7,245.8z"/>
			
				<linearGradient id="SVGID_55_" gradientUnits="userSpaceOnUse" x1="-203.1067" y1="471.3022" x2="-203.1067" y2="449.6753" gradientTransform="matrix(0.8808 -0.4735 0.4735 0.8808 147.8101 -289.9846)">
				<stop  offset="0" style="stop-color:#41607F"/>
				<stop  offset="1" style="stop-color:#41709B"/>
			</linearGradient>
			<path class="st50" d="M192.1,221.3c5.2-2.8,7.2-9.4,4.4-14.6c-2.8-5.2-9.4-7.2-14.6-4.4c-5.2,2.8-7.2,9.4-4.4,14.6
				C180.2,222.2,186.8,224.1,192.1,221.3z"/>
			
				<linearGradient id="SVGID_56_" gradientUnits="userSpaceOnUse" x1="-280.7024" y1="503.5015" x2="-280.7024" y2="486.5581" gradientTransform="matrix(0.8808 -0.4735 0.4735 0.8808 147.8101 -289.9846)">
				<stop  offset="0" style="stop-color:#41607F"/>
				<stop  offset="1" style="stop-color:#41709B"/>
			</linearGradient>
			<path class="st51" d="M131,271.5c4.1-2.2,9.3-0.7,11.5,3.4c2.2,4.1,0.7,9.3-3.5,11.5c-4.1,2.2-9.3,0.7-11.5-3.5
				C125.3,278.8,126.8,273.7,131,271.5z"/>
			
				<linearGradient id="SVGID_57_" gradientUnits="userSpaceOnUse" x1="-301.469" y1="520.7397" x2="-301.469" y2="505.2026" gradientTransform="matrix(0.8808 -0.4735 0.4735 0.8808 147.8101 -289.9846)">
				<stop  offset="0" style="stop-color:#41607F"/>
				<stop  offset="1" style="stop-color:#41709B"/>
			</linearGradient>
			<path class="st52" d="M128.8,311.4c3.8-2,5.2-6.8,3.2-10.5c-2-3.8-6.8-5.2-10.5-3.2c-3.8,2-5.2,6.8-3.2,10.5
				C120.4,312,125.1,313.5,128.8,311.4z"/>
			
				<linearGradient id="SVGID_58_" gradientUnits="userSpaceOnUse" x1="-280.7043" y1="538.1343" x2="-280.7043" y2="521.1909" gradientTransform="matrix(0.8808 -0.4735 0.4735 0.8808 147.8101 -289.9846)">
				<stop  offset="0" style="stop-color:#41607F"/>
				<stop  offset="1" style="stop-color:#41709B"/>
			</linearGradient>
			<path class="st53" d="M147.3,302c4.1-2.2,9.3-0.7,11.5,3.4c2.2,4.1,0.7,9.3-3.5,11.5c-4.1,2.2-9.3,0.7-11.5-3.5
				C141.7,309.3,143.2,304.2,147.3,302z"/>
			
				<linearGradient id="SVGID_59_" gradientUnits="userSpaceOnUse" x1="-203.1077" y1="503.5054" x2="-203.1077" y2="486.561" gradientTransform="matrix(0.8808 -0.4735 0.4735 0.8808 147.8101 -289.9846)">
				<stop  offset="0" style="stop-color:#41607F"/>
				<stop  offset="1" style="stop-color:#41709B"/>
			</linearGradient>
			<path class="st54" d="M199.3,234.7c4.1-2.2,9.3-0.7,11.5,3.4c2.2,4.1,0.7,9.3-3.5,11.5c-4.1,2.2-9.3,0.7-11.5-3.5
				C193.6,242.1,195.2,237,199.3,234.7z"/>
			
				<linearGradient id="SVGID_60_" gradientUnits="userSpaceOnUse" x1="-257.7615" y1="520.7397" x2="-257.7615" y2="505.2026" gradientTransform="matrix(0.8808 -0.4735 0.4735 0.8808 147.8101 -289.9846)">
				<stop  offset="0" style="stop-color:#41607F"/>
				<stop  offset="1" style="stop-color:#41709B"/>
			</linearGradient>
			<path class="st55" d="M167.3,290.7c3.8-2,5.2-6.8,3.2-10.5c-2-3.8-6.8-5.2-10.5-3.2c-3.8,2-5.2,6.8-3.2,10.5
				C158.8,291.3,163.6,292.8,167.3,290.7z"/>
			
				<linearGradient id="SVGID_61_" gradientUnits="userSpaceOnUse" x1="-223.8733" y1="520.7407" x2="-223.8733" y2="505.2046" gradientTransform="matrix(0.8808 -0.4735 0.4735 0.8808 147.8101 -289.9846)">
				<stop  offset="0" style="stop-color:#41607F"/>
				<stop  offset="1" style="stop-color:#41709B"/>
			</linearGradient>
			<path class="st56" d="M197.2,274.7c3.8-2,5.2-6.8,3.2-10.5c-2-3.8-6.8-5.2-10.5-3.2c-3.8,2-5.2,6.8-3.2,10.5
				C188.7,275.3,193.4,276.7,197.2,274.7z"/>
			
				<linearGradient id="SVGID_62_" gradientUnits="userSpaceOnUse" x1="-182.4065" y1="520.7437" x2="-182.4065" y2="505.2065" gradientTransform="matrix(0.8808 -0.4735 0.4735 0.8808 147.8101 -289.9846)">
				<stop  offset="0" style="stop-color:#41607F"/>
				<stop  offset="1" style="stop-color:#41709B"/>
			</linearGradient>
			<path class="st57" d="M233.7,255.1c3.8-2,5.2-6.8,3.2-10.5c-2-3.8-6.8-5.2-10.5-3.2c-3.8,2-5.2,6.8-3.2,10.5
				C225.2,255.7,229.9,257.1,233.7,255.1z"/>
			
				<linearGradient id="SVGID_63_" gradientUnits="userSpaceOnUse" x1="-203.1086" y1="538.1382" x2="-203.1086" y2="521.1938" gradientTransform="matrix(0.8808 -0.4735 0.4735 0.8808 147.8101 -289.9846)">
				<stop  offset="0" style="stop-color:#41607F"/>
				<stop  offset="1" style="stop-color:#41709B"/>
			</linearGradient>
			<circle class="st58" cx="219.7" cy="272.7" r="8.5"/>
			
				<linearGradient id="SVGID_64_" gradientUnits="userSpaceOnUse" x1="-163.4114" y1="503.5063" x2="-163.4114" y2="486.4839" gradientTransform="matrix(0.8808 -0.4735 0.4735 0.8808 147.8101 -289.9846)">
				<stop  offset="0" style="stop-color:#41607F"/>
				<stop  offset="1" style="stop-color:#41709B"/>
			</linearGradient>
			<path class="st59" d="M242.3,230.9c4.1-2.2,5.7-7.4,3.5-11.5c-2.2-4.1-7.4-5.7-11.5-3.5c-4.1,2.2-5.7,7.4-3.5,11.5
				C233,231.5,238.2,233.1,242.3,230.9z"/>
			
				<linearGradient id="SVGID_65_" gradientUnits="userSpaceOnUse" x1="-181.2346" y1="487.9604" x2="-181.2346" y2="468.022" gradientTransform="matrix(0.8808 -0.4735 0.4735 0.8808 147.8101 -289.9846)">
				<stop  offset="0" style="stop-color:#41607F"/>
				<stop  offset="1" style="stop-color:#41709B"/>
			</linearGradient>
			<path class="st60" d="M219.2,225.6c4.8-2.6,6.7-8.7,4.1-13.5c-2.6-4.8-8.7-6.7-13.5-4.1c-4.8,2.6-6.7,8.7-4.1,13.5
				C208.3,226.4,214.4,228.2,219.2,225.6z"/>
			
				<linearGradient id="SVGID_66_" gradientUnits="userSpaceOnUse" x1="-147.3489" y1="520.7456" x2="-147.3489" y2="505.2085" gradientTransform="matrix(0.8808 -0.4735 0.4735 0.8808 147.8101 -289.9846)">
				<stop  offset="0" style="stop-color:#41607F"/>
				<stop  offset="1" style="stop-color:#41709B"/>
			</linearGradient>
			<path class="st61" d="M264.6,238.5c3.8-2,5.2-6.8,3.2-10.5c-2-3.8-6.8-5.2-10.5-3.2c-3.8,2-5.2,6.8-3.2,10.5
				C256.1,239.1,260.8,240.5,264.6,238.5z"/>
		</g>
	</g>
	
		<linearGradient id="SVGID_67_" gradientUnits="userSpaceOnUse" x1="-417.0544" y1="543.8208" x2="-288.2691" y2="494.3847" gradientTransform="matrix(0.8808 -0.4735 0.4735 0.8808 147.8101 -289.9846)">
		<stop  offset="0" style="stop-color:#84080D"/>
		<stop  offset="4.994295e-02" style="stop-color:#930C11"/>
		<stop  offset="0.1766" style="stop-color:#B41419"/>
		<stop  offset="0.2984" style="stop-color:#CB191E"/>
		<stop  offset="0.4119" style="stop-color:#D91D22"/>
		<stop  offset="0.5092" style="stop-color:#DE1E23"/>
		<stop  offset="0.5908" style="stop-color:#CE1C21"/>
		<stop  offset="0.7506" style="stop-color:#A4161A"/>
		<stop  offset="0.9387" style="stop-color:#6B0E12"/>
	</linearGradient>
	<path class="st9" d="M28.7,252.2c0,0-13.7,27,5.7,66.7c0,0,19,32.4,33,42.6c0,0-17.2,28.3-18.4,30.2c-1.2,1.9,0.2,6.9,5.2,6.7
		s101.3-10,101.3-10s7.2-1.3,8.4-3.3c1.2-1.9,0.4-6.3-1.2-10.5c-1.6-4.2-30.3-76.2-32.5-81.6c-2.2-5.4-5.3-14.5-7.2-15.2
		c-5.1-1.7-7.7,4.1-7.7,4.1L98,310.2c0,0-29.3-4.9-44.8-19.5c-11.3-10.7-18.1-22.8-20.2-30.4c-0.2-0.6-3.4-6.4-3.4-6.4L28.7,252.2z"
		/>
	<g>
		
			<linearGradient id="SVGID_68_" gradientUnits="userSpaceOnUse" x1="-336.8503" y1="611.0464" x2="-410.8152" y2="459.396" gradientTransform="matrix(0.8808 -0.4735 0.4735 0.8808 147.8101 -289.9846)">
			<stop  offset="0" style="stop-color:#DE1E23;stop-opacity:0"/>
			<stop  offset="4.520078e-02" style="stop-color:#DB3337;stop-opacity:8.876789e-02"/>
			<stop  offset="0.1286" style="stop-color:#D75356;stop-opacity:0.2526"/>
			<stop  offset="0.2151" style="stop-color:#D46C6F;stop-opacity:0.4224"/>
			<stop  offset="0.3049" style="stop-color:#D27E80;stop-opacity:0.5987"/>
			<stop  offset="0.3999" style="stop-color:#D0898B;stop-opacity:0.7854"/>
			<stop  offset="0.5092" style="stop-color:#D08C8E"/>
			<stop  offset="0.5963" style="stop-color:#D1888A;stop-opacity:0.8225"/>
			<stop  offset="0.6922" style="stop-color:#D27A7D;stop-opacity:0.6272"/>
			<stop  offset="0.7922" style="stop-color:#D56467;stop-opacity:0.4234"/>
			<stop  offset="0.8951" style="stop-color:#D94549;stop-opacity:0.2137"/>
			<stop  offset="0.9993" style="stop-color:#DE1E23;stop-opacity:1.457095e-03"/>
			<stop  offset="1" style="stop-color:#DE1E23;stop-opacity:0"/>
		</linearGradient>
		<path class="st10" d="M155.5,386.4c-0.3,0.1-0.6,0.2-0.9,0.3l-99.9,8.8c-0.8,0.1-1.7-0.3-2.1-1.1c-0.4-0.7-0.4-1.6,0-2.3
			l18.9-29.8c-42.6-35.8-46-80.8-46.1-82.7c-0.1-1.2,0.9-2.3,2.1-2.4c1.2-0.1,2.3,0.9,2.4,2.1c0,0.5,3.6,46.1,46,80.8
			c0.9,0.7,1.1,1.9,0.5,2.9l-17.6,27.7l95.4-8.4c1.2-0.1,2.3,0.8,2.4,2C156.8,385.1,156.3,386,155.5,386.4z"/>
	</g>
</g>
</svg>
